<svg width="4" height="6" viewBox="0 0 4 6" fill="none" xmlns="http://www.w3.org/2000/svg">
<path d="M1.8 2.68C1.74667 2.69333 1.68667 2.70667 1.62 2.72C1.55333 2.72 1.48 2.72 1.4 2.72C0.986667 2.72 0.646667 2.59333 0.38 2.34C0.126667 2.08667 1.49012e-08 1.77333 1.49012e-08 1.4C1.49012e-08 1.02667 0.146667 0.699999 0.44 0.419999C0.733333 0.14 1.16 0 1.72 0C2.32 0 2.78 0.206666 3.1 0.619999C3.43333 1.03333 3.6 1.54 3.6 2.14C3.6 2.68667 3.47333 3.22 3.22 3.74C2.98 4.26 2.64 4.72 2.2 5.12C1.77333 5.50667 1.27333 5.8 0.7 6L0.62 5.66C1.08667 5.48667 1.45333 5.2 1.72 4.8C2 4.38667 2.14 3.96667 2.14 3.54C2.14 3.15333 2.02667 2.86667 1.8 2.68Z" fill="#F7F2E6"/>
</svg>
