<svg width="19" height="36" viewBox="0 0 19 36" fill="none" xmlns="http://www.w3.org/2000/svg">
<path d="M1.36 20.68L2.76 16.78C2.81333 16.6333 2.84 16.4867 2.84 16.34C2.84 16.18 2.78 16.1 2.66 16.1C2.43333 16.1 2.16 16.3 1.84 16.7C1.53333 17.0867 1.26667 17.6333 1.04 18.34H0.48C0.866667 17.2333 1.30667 16.4533 1.8 16C2.29333 15.5467 2.82667 15.32 3.4 15.32C3.66667 15.32 3.87333 15.38 4.02 15.5C4.18 15.62 4.26 15.82 4.26 16.1C4.44667 15.8733 4.68 15.6867 4.96 15.54C5.24 15.3933 5.55333 15.32 5.9 15.32C6.15333 15.32 6.37333 15.3867 6.56 15.52C6.76 15.64 6.86 15.8333 6.86 16.1C7.08667 15.8067 7.35333 15.6067 7.66 15.5C7.96667 15.38 8.22667 15.32 8.44 15.32C8.72 15.32 8.94667 15.3733 9.12 15.48C9.30667 15.5867 9.4 15.7733 9.4 16.04C9.4 16.1333 9.38667 16.2467 9.36 16.38C9.33333 16.5133 9.30667 16.6067 9.28 16.66L8.4 19.3C8.36 19.42 8.32 19.54 8.28 19.66C8.25333 19.78 8.24 19.8933 8.24 20C8.24 20.2 8.32 20.3 8.48 20.3C8.65333 20.3 8.86 20.1267 9.1 19.78C9.22 19.6067 9.34667 19.4067 9.48 19.18C9.61333 18.9533 9.74667 18.6933 9.88 18.4L10.36 18.6C10 19.4133 9.63333 20.02 9.26 20.42C8.9 20.8067 8.44 21 7.88 21C7.50667 21 7.21333 20.92 7 20.76C6.78667 20.5867 6.68 20.3333 6.68 20C6.68 19.8133 6.72 19.58 6.8 19.3C6.88 19.0067 6.94667 18.7933 7 18.66L7.68 16.76C7.74667 16.56 7.78 16.4333 7.78 16.38C7.78 16.1933 7.69333 16.1 7.52 16.1C7.36 16.1 7.22 16.1867 7.1 16.36C6.98 16.5333 6.84667 16.82 6.7 17.22L5.4 20.68H3.78L5.26 16.66C5.28667 16.5267 5.3 16.4333 5.3 16.38C5.3 16.1933 5.21333 16.1 5.04 16.1C4.78667 16.1 4.58667 16.3067 4.44 16.72L3 20.68H1.36Z" fill="#F7F2E6"/>
<path d="M13.2 15.62C13.44 15.02 13.7667 14.4733 14.18 13.98C14.5933 13.4867 15.0533 13.1 15.56 12.82C16.08 12.5267 16.6067 12.38 17.14 12.38C17.6867 12.38 18.0667 12.5067 18.28 12.76C18.5067 13 18.62 13.3 18.62 13.66C18.62 13.9667 18.5133 14.2467 18.3 14.5C18.0867 14.7533 17.8467 14.88 17.58 14.88C17.0867 14.88 16.84 14.64 16.84 14.16C16.84 14.0533 16.86 13.9467 16.9 13.84C16.94 13.72 17.0267 13.6133 17.16 13.52C17.28 13.4267 17.4133 13.3533 17.56 13.3C17.7067 13.2333 17.78 13.1867 17.78 13.16C17.78 13.12 17.7267 13.08 17.62 13.04C17.5667 13.0133 17.5067 12.9933 17.44 12.98C17.3733 12.9667 17.3067 12.96 17.24 12.96C16.7867 12.96 16.3733 13.1733 16 13.6C15.6267 14.0267 15.3267 14.7 15.1 15.62H16.84V16.28H14.92C14.5867 17.5733 14.2267 18.7133 13.84 19.7C13.4533 20.6733 13.0267 21.48 12.56 22.12C11.64 23.4133 10.7 24.06 9.74 24.06C9.26 24.06 8.9 23.92 8.66 23.64C8.42 23.36 8.3 23.0267 8.3 22.64C8.3 22.2133 8.4 21.8933 8.6 21.68C8.8 21.4667 9.05333 21.36 9.36 21.36C9.62667 21.36 9.84 21.4467 10 21.62C10.1467 21.78 10.22 21.98 10.22 22.22C10.22 22.34 10.2067 22.4467 10.18 22.54C10.1533 22.6333 10.0933 22.7333 10 22.84C9.90667 22.9333 9.82 23.0133 9.74 23.08C9.66 23.1467 9.58667 23.2 9.52 23.24C9.46667 23.2667 9.44 23.3133 9.44 23.38C9.44 23.4467 9.54 23.48 9.74 23.48C10.1533 23.48 10.52 23.2267 10.84 22.72C11 22.4667 11.1667 22.1333 11.34 21.72C11.5133 21.2933 11.6667 20.8267 11.8 20.32L12.48 17.92C12.6933 17.12 12.86 16.5733 12.98 16.28H11.62V15.62H13.2Z" fill="#F7F2E6"/>
</svg>
