<svg width="9" height="18" viewBox="0 0 9 18" fill="none" xmlns="http://www.w3.org/2000/svg">
<path d="M3.36994 15.0699C2.72994 15.0699 2.20327 14.9233 1.78994 14.6299C1.38994 14.3233 1.18994 13.8633 1.18994 13.2499C1.18994 12.5699 1.37661 11.9633 1.74994 11.4299C2.13661 10.8833 2.63661 10.4566 3.24994 10.1499C3.86327 9.82992 4.51661 9.66992 5.20994 9.66992C5.79661 9.66992 6.26327 9.82992 6.60994 10.1499C6.95661 10.4566 7.12994 10.8966 7.12994 11.4699C7.12994 12.1233 6.95661 12.7233 6.60994 13.2699C6.26327 13.8166 5.80327 14.2566 5.22994 14.5899C4.66994 14.9099 4.04994 15.0699 3.36994 15.0699Z" fill="#F7F2E6"/>
<path d="M4.12994 2.5498C4.39661 2.5498 4.61661 2.6498 4.78994 2.8498C4.97661 3.03647 5.06994 3.2498 5.06994 3.4898C5.06994 3.7298 4.97661 3.9498 4.78994 4.14981C4.61661 4.33647 4.39661 4.4298 4.12994 4.4298C3.86327 4.4298 3.63661 4.33647 3.44994 4.14981C3.27661 3.9498 3.18994 3.7298 3.18994 3.4898C3.18994 3.2498 3.27661 3.03647 3.44994 2.8498C3.63661 2.6498 3.86327 2.5498 4.12994 2.5498Z" fill="#F7F2E6"/>
</svg>
