<svg width="13" height="35" viewBox="0 0 13 35" fill="none" xmlns="http://www.w3.org/2000/svg">
<path d="M5.28 10.66C5.09333 9.95333 4.94 9.25333 4.82 8.56C4.7 7.86667 4.64 7.16 4.64 6.44C4.64 5.81333 4.68 5.22667 4.76 4.68C4.85333 4.12 4.98 3.60667 5.14 3.14C5.31333 2.60667 5.54 2.10667 5.82 1.64C6.1 1.16 6.39333 0.766667 6.7 0.46C7.02 0.153333 7.3 0 7.54 0C7.86 0 8.3 0.566667 8.86 1.7C9.14 2.27333 9.34667 2.89333 9.48 3.56C9.61333 4.22667 9.68 4.94 9.68 5.7C9.68 6.64667 9.55333 7.59333 9.3 8.54C9.04667 9.47333 8.67333 10.3533 8.18 11.18C7.7 12.0067 7.12 12.7333 6.44 13.36L7.14 16.72C7.34 16.6933 7.50667 16.6733 7.64 16.66C7.77333 16.6467 7.87333 16.64 7.94 16.64C8.75333 16.64 9.48 16.8733 10.12 17.34C10.76 17.7933 11.2667 18.3933 11.64 19.14C12.0267 19.8867 12.22 20.7067 12.22 21.6C12.22 22.6267 11.9533 23.5533 11.42 24.38C10.9 25.1933 10.1133 25.7933 9.06 26.18C9.12667 26.4067 9.32 27.3533 9.64 29.02C9.72 29.42 9.78 29.7333 9.82 29.96C9.86 30.2 9.88667 30.4067 9.9 30.58C9.91333 30.7533 9.92 30.9533 9.92 31.18C9.92 31.8467 9.75333 32.44 9.42 32.96C9.1 33.4933 8.66 33.9067 8.1 34.2C7.55333 34.4933 6.94 34.64 6.26 34.64C5.56667 34.64 4.95333 34.5067 4.42 34.24C3.88667 33.9867 3.46667 33.6267 3.16 33.16C2.85333 32.7067 2.7 32.18 2.7 31.58C2.7 30.94 2.87333 30.4067 3.22 29.98C3.58 29.5533 4.08667 29.34 4.74 29.34C5.3 29.34 5.75333 29.54 6.1 29.94C6.46 30.3533 6.64 30.84 6.64 31.4C6.64 31.88 6.47333 32.3 6.14 32.66C5.80667 33.02 5.37333 33.2 4.84 33.2H4.64C4.98667 33.72 5.53333 33.98 6.28 33.98C7.2 33.98 7.92 33.68 8.44 33.08C8.96 32.48 9.22 31.7133 9.22 30.78C9.22 30.5533 9.19333 30.2467 9.14 29.86C9.08667 29.4867 8.99333 29.0333 8.86 28.5C8.72667 27.9667 8.62 27.5267 8.54 27.18C8.47333 26.8333 8.42667 26.5867 8.4 26.44C7.94667 26.5733 7.41333 26.64 6.8 26.64C5.65333 26.64 4.53333 26.3067 3.44 25.64C2.37333 24.9733 1.53333 24.0933 0.92 23C0.306667 21.9067 0 20.7267 0 19.46C0 18.26 0.273333 17.1333 0.82 16.08C1.36667 15.0267 2.04 14.06 2.84 13.18C3.65333 12.3 4.46667 11.46 5.28 10.66ZM5.82 10.16C6.12667 10 6.45333 9.70667 6.8 9.28C7.14667 8.84 7.48 8.34 7.8 7.78C8.12 7.22 8.38 6.66 8.58 6.1C8.78 5.52667 8.88 5.01333 8.88 4.56C8.88 4.08 8.80667 3.7 8.66 3.42C8.51333 3.14 8.26 3 7.9 3C7.58 3 7.26667 3.14667 6.96 3.44C6.66667 3.73333 6.4 4.12667 6.16 4.62C5.93333 5.1 5.75333 5.64 5.62 6.24C5.48667 6.84 5.42 7.45333 5.42 8.08C5.42 8.50667 5.46 8.89333 5.54 9.24C5.63333 9.58667 5.72667 9.89334 5.82 10.16ZM6.96 19.1C6.6 19.18 6.26 19.3533 5.94 19.62C5.62 19.8733 5.36 20.1867 5.16 20.56C4.97333 20.92 4.88 21.3067 4.88 21.72C4.88 22.0533 4.96667 22.4 5.14 22.76C5.31333 23.1067 5.52667 23.3867 5.78 23.6C5.95333 23.76 6.12667 23.88 6.3 23.96C6.5 24.0533 6.6 24.14 6.6 24.22C6.6 24.26 6.53333 24.3 6.4 24.34C5.89333 24.22 5.43333 23.9933 5.02 23.66C4.62 23.3267 4.3 22.9267 4.06 22.46C3.83333 21.98 3.72 21.4733 3.72 20.94C3.72 20.3667 3.83333 19.8133 4.06 19.28C4.3 18.7467 4.62667 18.2667 5.04 17.84C5.46667 17.4133 5.94667 17.0933 6.48 16.88L5.9 13.86C4.35333 15.1133 3.21333 16.3467 2.48 17.56C1.76 18.76 1.4 19.9533 1.4 21.14C1.4 22.0067 1.62667 22.8133 2.08 23.56C2.53333 24.3067 3.15333 24.9133 3.94 25.38C4.72667 25.8333 5.61333 26.06 6.6 26.06C6.86667 26.06 7.13333 26.0333 7.4 25.98C7.68 25.9267 7.97333 25.86 8.28 25.78L6.96 19.1ZM8.9 25.58C10.2067 25.02 10.86 23.8733 10.86 22.14C10.86 21.5667 10.7133 21.0467 10.42 20.58C10.1267 20.1 9.73333 19.72 9.24 19.44C8.74667 19.16 8.19333 19.02 7.58 19.02L8.9 25.58Z" fill="#F7F2E6"/>
</svg>
